<svg xmlns="http://www.w3.org/2000/svg" xmlns:xlink="http://www.w3.org/1999/xlink" viewBox="0 0 592 592"><defs><path id="a" d="M0 .192h265.706V316.94H0z"/></defs><g fill="none" fill-rule="evenodd"><path fill="#FFF" d="M515.883 210.385c-.052.156-149.5 1.196-163.256 1.32-13.19.119-26.278.557-39.475.07-2.519-.092-5.57-.48-6.455-2.238-.262-.52-.278-1.088-.292-1.643-.157-6.444-.138-12.889-.234-19.333-.021-1.399-.258-17.026-.137-17.027 5.099-.02 10.2-.073 15.275-.126 5.831-.06 11.663-.132 17.494-.204 15.067-.187 30.133-.387 45.2-.574 23.468-.29 46.982-.817 70.454-.563 12.486.135 24.97.322 37.456.51 4.976.075 22.203-.954 24.165 2.264.361.592.493 1.245.569 1.893.524 4.47.319 8.94.286 13.415l-.095 13.21c0 2.063-.301 7.036-.955 9.026"/><path fill="#5D7183" d="M306.375 172.904c-.008 2.262.053 8.023.17 15.96l.002.143c.038 2.591.059 5.225.078 7.772.03 3.885.061 7.903.157 11.849.01.45.02.876.17 1.176.327.658 1.54 1.473 5.454 1.619 9.8.365 19.732.211 29.337.063 3.34-.051 6.793-.105 10.2-.136 3.824-.035 18.351-.143 36.744-.28 44.468-.331 117.423-.874 126.078-1.032.46-2.178.699-6.17.699-8.019v-.101l.095-13.321c.006-.875.019-1.75.031-2.624.052-3.571.106-7.264-.311-10.857-.055-.473-.146-1.016-.41-1.454-.122-.202-1.047-1.236-7.261-1.646-3.986-.262-8.7-.178-12.142-.117-1.557.028-2.902.051-3.833.037-12.297-.187-25.014-.38-37.56-.518-18.074-.197-36.475.077-54.271.342-5.457.08-10.912.162-16.365.23-7.716.097-15.432.197-23.149.298-7.395.096-14.79.192-22.185.285-5.849.074-11.698.146-17.548.208l-.312.003c-4.542.048-9.228.097-13.868.12zM325.914 214c-4.527 0-9.072-.059-13.597-.228-2.64-.098-6.29-.509-7.495-2.928-.38-.766-.4-1.539-.414-2.16-.096-3.965-.127-7.993-.157-11.888-.02-2.542-.04-5.172-.078-7.755l-.002-.143c-.016-1.05-.079-5.31-.123-9.321-.026-2.289-.041-4.108-.045-5.406-.01-2.875-.01-2.875.37-3.26.222-.224.526-.352.842-.353 5.008-.02 10.09-.073 15.003-.125l.312-.003c5.848-.062 11.696-.134 17.543-.208 7.395-.093 14.79-.19 22.184-.285 7.717-.1 15.433-.201 23.15-.298 5.45-.068 10.904-.15 16.359-.23 17.81-.266 36.228-.54 54.332-.342 12.553.138 25.272.331 37.572.518.89.014 2.217-.01 3.754-.037 12.66-.226 19.835.172 21.485 2.91.496.825.65 1.71.73 2.39.433 3.744.379 7.513.326 11.16-.013.868-.026 1.736-.032 2.605l-.095 13.415c0 2.152-.307 7.333-1.015 9.517v.002c-.264.81-.847.82-2.007.841-.589.01-1.459.023-2.582.037a3569.4 3569.4 0 0 1-9.551.1c-7.437.07-18.29.162-32.258.273-25.667.206-58.064.447-81.72.623-18.392.137-32.918.246-36.74.28-3.4.032-6.85.085-10.185.136-5.215.08-10.527.163-15.866.163z"/><path fill="#02BD6C" d="M305.786 156c-.983 0-1.782-.706-1.786-1.58-.004-.877.793-1.59 1.78-1.594 5.026-.017 61.243-.633 78.411-.826.977-.009 1.796.69 1.809 1.566.012.877-.777 1.596-1.764 1.607-12.574.142-73.114.808-78.443.827h-.007z"/><path fill="#FFF" d="M515.883 289.385c-.052.156-149.5 1.196-163.256 1.32-13.19.119-26.278.557-39.475.07-2.519-.092-5.57-.48-6.455-2.238-.262-.52-.278-1.088-.292-1.643-.157-6.444-.138-12.889-.234-19.333-.021-1.399-.258-17.026-.137-17.027 5.099-.02 10.2-.073 15.275-.126 5.831-.06 11.663-.132 17.494-.204 15.067-.187 30.133-.387 45.2-.574 23.468-.29 46.982-.817 70.454-.563 12.486.135 24.97.322 37.456.51 4.976.075 22.203-.954 24.165 2.264.361.592.493 1.245.569 1.893.524 4.47.319 8.941.286 13.415l-.095 13.21c0 2.064-.301 7.036-.955 9.026"/><path fill="#5D7183" d="M306.375 251.904c-.008 2.262.053 8.023.17 15.96l.002.142c.038 2.592.059 5.226.078 7.773.03 3.885.061 7.903.157 11.849.01.45.02.876.17 1.176.327.658 1.54 1.473 5.454 1.619 9.803.365 19.737.211 29.344.063 3.337-.051 6.788-.105 10.192-.136 3.81-.035 18.245-.142 36.521-.278 44.55-.332 117.64-.876 126.302-1.034.46-2.178.699-6.17.699-8.019v-.101l.095-13.321c.006-.875.019-1.75.031-2.624.052-3.571.106-7.263-.311-10.857-.055-.473-.147-1.016-.41-1.454-.122-.202-1.047-1.236-7.26-1.646-3.986-.262-8.7-.178-12.141-.117-1.558.028-2.905.053-3.835.037-12.323-.187-25.047-.38-37.56-.518-18.075-.197-36.474.077-54.27.342-5.456.081-10.913.162-16.366.23-7.716.097-15.432.197-23.149.298-7.395.096-14.79.192-22.185.285-5.849.074-11.698.146-17.548.208l-.252.002c-4.562.049-9.268.098-13.928.12zM325.913 293c-4.526 0-9.071-.059-13.596-.228-2.64-.098-6.29-.509-7.495-2.928-.38-.766-.4-1.539-.414-2.16-.096-3.965-.127-7.993-.157-11.888-.02-2.542-.04-5.172-.078-7.755l-.002-.143c-.016-1.05-.079-5.31-.123-9.321a745.87 745.87 0 0 1-.045-5.406c-.01-2.875-.01-2.875.37-3.26.223-.224.527-.352.844-.353 5.026-.02 10.128-.074 15.061-.126l.252-.003c5.848-.061 11.696-.134 17.543-.207 7.395-.093 14.79-.19 22.184-.286 7.717-.1 15.433-.2 23.15-.297 5.451-.068 10.906-.15 16.361-.23 17.81-.265 36.227-.54 54.33-.342 12.52.137 25.246.33 37.553.518.91.013 2.237-.01 3.774-.037 12.661-.224 19.834.172 21.484 2.91.496.826.65 1.711.73 2.39.433 3.744.379 7.513.326 11.16-.013.868-.026 1.736-.031 2.605l-.096 13.415c0 2.152-.307 7.333-1.015 9.517v.002c-.264.81-.848.82-2.01.841-.59.01-1.463.023-2.59.037-2.247.028-5.51.061-9.577.1-7.457.07-18.338.162-32.34.274-25.724.206-58.149.448-81.825.624-18.275.136-32.71.244-36.517.279-3.396.03-6.843.084-10.177.135-5.218.08-10.532.163-15.874.163z"/><path fill="#02BD6C" d="M305.786 234c-.983 0-1.782-.707-1.786-1.58-.004-.877.792-1.59 1.78-1.594 5.03-.017 61.244-.633 78.411-.826h.023c.976 0 1.773.697 1.786 1.567.012.876-.777 1.595-1.764 1.606-12.573.142-73.11.808-78.443.827h-.007z"/><path fill="#FFF" d="M515.883 367.385c-.052.156-149.5 1.196-163.256 1.32-13.19.119-26.278.556-39.475.07-2.519-.092-5.57-.48-6.455-2.238-.262-.52-.278-1.088-.292-1.643-.157-6.443-.138-12.889-.234-19.333-.021-1.399-.258-17.026-.137-17.026 5.099-.02 10.2-.074 15.275-.127 5.831-.06 11.663-.132 17.494-.204 15.067-.187 30.133-.387 45.2-.574 23.468-.29 46.982-.816 70.454-.563 12.486.135 24.97.322 37.456.51 4.976.075 22.203-.954 24.165 2.264.361.592.493 1.245.569 1.893.524 4.47.319 8.941.286 13.415l-.095 13.21c0 2.063-.301 7.036-.955 9.026"/><path fill="#5D7183" d="M306.375 329.904c-.008 2.262.053 8.023.17 15.96l.002.142c.038 2.592.059 5.226.078 7.773.03 3.885.061 7.903.157 11.849.01.45.02.876.17 1.176.327.658 1.54 1.473 5.454 1.619 9.8.365 19.73.211 29.333.063 3.34-.051 6.795-.105 10.203-.136 3.81-.035 18.245-.142 36.521-.278 44.55-.332 117.64-.876 126.302-1.034.46-2.178.699-6.17.699-8.019v-.101l.095-13.321c.006-.875.019-1.75.031-2.624.052-3.571.106-7.263-.311-10.857-.055-.473-.147-1.016-.41-1.454-.122-.202-1.047-1.236-7.26-1.646-3.986-.262-8.7-.178-12.141-.117-1.558.028-2.905.053-3.835.037-12.323-.187-25.047-.38-37.56-.518-18.075-.197-36.474.077-54.27.342-5.456.081-10.913.162-16.366.23-7.716.097-15.432.197-23.149.298-7.395.096-14.79.192-22.185.285-5.849.074-11.698.146-17.548.208l-.252.002c-4.562.049-9.268.098-13.928.12zM325.908 371c-4.524 0-9.068-.059-13.59-.228-2.641-.098-6.291-.509-7.496-2.928-.38-.766-.4-1.539-.414-2.16-.096-3.965-.127-7.993-.157-11.888-.02-2.542-.04-5.172-.078-7.755l-.002-.143c-.016-1.05-.079-5.31-.123-9.321-.026-2.289-.041-4.108-.045-5.406-.01-2.875-.01-2.875.37-3.26.223-.224.527-.352.844-.353 5.026-.02 10.128-.074 15.061-.126l.252-.003c5.848-.061 11.696-.134 17.543-.207 7.395-.093 14.79-.19 22.184-.285 7.717-.1 15.433-.2 23.15-.298 5.451-.068 10.906-.15 16.361-.23 17.81-.266 36.227-.54 54.33-.342 12.52.137 25.246.33 37.553.518.91.014 2.237-.01 3.774-.037 12.661-.225 19.834.172 21.484 2.91.496.826.65 1.711.73 2.39.433 3.744.379 7.513.326 11.16-.013.868-.026 1.736-.031 2.605l-.096 13.415c0 2.152-.307 7.333-1.015 9.517v.002c-.264.81-.848.82-2.01.841-.59.01-1.463.023-2.59.037-2.247.028-5.51.061-9.577.1-7.457.07-18.338.162-32.34.274-25.724.206-58.149.448-81.825.624-18.275.136-32.71.244-36.517.279-3.4.03-6.851.084-10.188.135-5.216.08-10.528.163-15.868.163z"/><path fill="#02BD6C" d="M305.786 312c-.983 0-1.782-.707-1.786-1.58-.004-.877.792-1.59 1.78-1.594 5.03-.017 61.244-.633 78.411-.826h.023c.976 0 1.773.697 1.786 1.567.012.876-.777 1.595-1.764 1.606-12.573.142-73.11.808-78.443.827h-.007zm211.08 142c-.051.194-151.625 1.482-165.576 1.635-13.377.147-26.651.689-40.036.087-2.555-.114-5.649-.595-6.547-2.772-.266-.643-.283-1.346-.296-2.034-.16-7.978-.14-15.957-.238-23.935-.02-1.733-.26-21.08-.138-21.08 5.17-.025 10.345-.092 15.492-.157 5.914-.076 11.828-.164 17.742-.253 15.28-.232 30.561-.48 45.842-.71 23.802-.36 47.65-1.012 71.458-.698 12.662.167 25.324.4 37.987.631 5.048.093 22.519-1.181 24.51 2.804.365.733.499 1.54.576 2.343.532 5.534.323 11.07.29 16.609-.031 5.452-.064 10.903-.096 16.355 0 2.555-.306 8.711-.97 11.176"/><path fill="#5D7183" d="M329.51 193.264c-.58.654-.74 1.53-.082 2.557 1.79 2.786 8.297.119 6.138-2.66-.403-.52-1.048-.868-1.778-1.047-1.435-.351-3.371.126-4.279 1.15m24 0c-.58.654-.74 1.53-.08 2.557 1.788 2.786 8.296.119 6.137-2.66-.403-.52-1.048-.868-1.778-1.047-1.435-.351-3.371.126-4.279 1.15m23 0c-.58.654-.74 1.53-.08 2.557 1.788 2.786 8.296.119 6.137-2.66-.403-.52-1.048-.868-1.778-1.047-1.435-.351-3.371.126-4.279 1.15M514.393 398c-.059 0-.118-.003-.178-.01-.762-.08-1.301-.651-1.204-1.277a95.833 95.833 0 0 1 4.26-16.888c.213-.605.985-.954 1.722-.78.739.174 1.165.806.952 1.412a93.879 93.879 0 0 0-4.173 16.547c-.09.576-.689.996-1.379.996m6.805 4c-.378 0-.75-.181-.982-.519a1.227 1.227 0 0 1 .295-1.693 252.412 252.412 0 0 0 18.518-14.5 1.183 1.183 0 0 1 1.687.141c.427.512.365 1.28-.139 1.713a254.681 254.681 0 0 1-18.694 14.638c-.21.149-.448.22-.685.22m5.007 10c-.63 0-1.16-.59-1.202-1.36-.044-.802.46-1.495 1.124-1.547 3.94-.312 7.829-.678 11.558-1.087.662-.074 1.25.517 1.31 1.317.06.8-.428 1.508-1.092 1.58-3.749.413-7.658.78-11.618 1.094a.99.99 0 0 1-.08.003"/><path fill="#FFF" d="M237 324.407c-5.238-2.173-10.105-5.694-14.072-10.615-16.48-20.44-24.968-48.54-30.604-73.847-5.127-23.024-7.33-49.77-20.315-70.13-10.558-16.552-32.544-26.21-50.39-14.95-20.889 13.18-18.816 47.596-17.665 69.516.898 17.114 3.407 42.58-5.365 58.614-16.782 30.674-40.236 61.361-44.1 97.513-3.578 33.477 12.504 72.565 47.215 82.177 23.647 6.548 59.562-.986 74.935-20.188L237 324.407z"/><path fill="#02BD6C" d="M90.27 171.182c-7.304 7.744-13.172 17.842-13.269 28.769-.03 3.392.478 6.9 2.27 9.778 1.792 2.877 5.081 4.99 8.447 4.636 2.029-.213 4.082-1.268 6.014-.613-3.546 6.941-11.25 19.794-5.377 27.325 18.882 24.207 58.898-48.058 62.943-61.027-1.83 5.868 2.158 12.462 7.275 14.406 13.61 5.17 44.028-15.858 37.528-31.638-1.563-3.794-5.405-5.788-9.072-5.835-3.666-.047-7.208 1.516-10.577 3.223 6.749-2.336 8.888-13.813 4.232-19.806-5.329-6.86-19.678-5.859-21.804 3.895 10.156-28.721-31.386-16.398-41.628-10.962-9.9 5.256-26.838 12.935-27.902 25.887-.127 1.553.025 3.195.86 4.508 1.048 1.65 3.166 2.538 5.074 2.127-1.68 1.802-3.356 3.57-5.013 5.327"/><path fill="#5D7183" d="M159.191 333a1.196 1.196 0 0 1-1.145-1.524c2.496-8.749 3.722-23.069 4.311-29.95.113-1.318.202-2.358.276-3.095.121-1.198.216-2.145 1.29-2.207 11.964-.704 24.675-7.368 34-17.826a1.186 1.186 0 0 1 1.68-.094c.49.44.532 1.196.094 1.687-9.49 10.643-22.387 17.524-34.682 18.55-.078.755-.18 1.949-.286 3.188-.596 6.957-1.835 21.433-4.394 30.405-.15.524-.626.866-1.144.866m-4.808-32c-19.965 0-37.317-5.224-55.809-16.725a1.249 1.249 0 0 1-.404-1.682 1.165 1.165 0 0 1 1.627-.418c19.141 11.906 37.022 16.934 57.983 16.325l.035-.001c.64 0 1.166.526 1.185 1.19.018.677-.497 1.24-1.152 1.26a117.59 117.59 0 0 1-3.465.05m1.637-66c-1.312 0-2.62-.418-3.78-1.224-1.702-1.182-2.907-3.087-3.225-5.096a1.175 1.175 0 1 1 2.32-.37c.22 1.384 1.057 2.701 2.241 3.524.996.692 2.138.95 3.217.727 1.536-.318 4.078-1.823 3.843-8.337a1.178 1.178 0 0 1 1.132-1.222 1.173 1.173 0 0 1 1.217 1.137c.216 6.025-1.868 9.938-5.718 10.734-.413.085-.83.128-1.247.128"/><path fill="#FFF" d="M218.85 462.978c.038 1.487 34.666-73.093 48.15-113.652-25.08-2.917-55.18-7.41-80.259-10.326-13.165 29.628-24.242 58.926-38.863 87.858-4.305 8.52-6.454 13.774-11.878 21.624 23.539 6.49 58.934 9.587 82.85 14.496"/><path fill="#5D7183" d="M139.082 447.614c13.561 3.598 30.776 6.133 47.445 8.587 11.64 1.713 22.653 3.335 32.1 5.253 3.769-7.147 33.867-72.935 46.62-110.96-12.048-1.43-25.382-3.234-38.294-4.98-13.11-1.773-26.657-3.605-38.837-5.043-4.365 9.92-8.559 19.94-12.618 29.637-7.877 18.818-16.022 38.276-25.517 57.202-.92 1.832-1.731 3.495-2.516 5.104-2.615 5.361-4.722 9.682-8.383 15.2M219.28 464c-.086 0-.176-.009-.275-.024a1.152 1.152 0 0 1-.259-.071c-9.512-1.958-20.709-3.606-32.559-5.35-17.4-2.562-35.392-5.211-49.323-9.08a1.183 1.183 0 0 1-.795-.742 1.201 1.201 0 0 1 .14-1.083c4.156-6.059 6.358-10.573 9.146-16.288.788-1.615 1.602-3.284 2.527-5.128 9.458-18.853 17.588-38.272 25.45-57.053 4.171-9.968 8.486-20.275 12.987-30.477.209-.474.698-.754 1.209-.697 12.42 1.456 26.307 3.334 39.736 5.15 13.419 1.815 27.295 3.691 39.694 5.144.352.041.667.24.857.543.19.302.236.675.123 1.015-7.441 22.547-21.096 54.677-28.573 71.822-6.167 14.14-10.954 24.61-13.259 29.593a511.236 511.236 0 0 1-4.18 8.855c-1.551 3.182-1.887 3.87-2.646 3.87"/><path fill="#FFF" d="M252.858 351.953c-10.57.452-21.049-2.474-31.514-4.152-1.307-.21-20.39-3.284-20.344-3.5.655-2.744 1.359-5.59 3.154-7.776 2.175-2.649 5.687-3.932 9.121-4.158 1.5-.099 2.927.102 4.322.393 2.587.54 4.517-.113 7.028.203 1.685-3.852 5.073-6.922 9.525-6.963 1.131-.01 2.32.197 3.193.911 1.09.892 1.468 2.383 1.565 3.78a13.642 13.642 0 0 1-.658 5.214l10.425 2.388c1.509.345 3.078.72 4.267 1.705 1.666 1.38 2.245 3.73 2.007 5.87s-1.17 4.135-2.091 6.085"/><path fill="#5D7183" d="M202.61 344.346c3.327.645 13.639 2.354 18.59 3.156 2.756.447 5.55.99 8.254 1.516 7.053 1.372 14.339 2.787 21.507 2.588.742-1.608 1.441-3.264 1.628-4.966.168-1.53-.148-3.58-1.538-4.745-.966-.81-2.401-1.142-3.667-1.435l-10.16-2.353a1.191 1.191 0 0 1-.858-1.528c.489-1.495.69-3.115.584-4.686-.096-1.395-.465-2.368-1.097-2.89-.515-.426-1.315-.642-2.349-.628-3.49.033-6.559 2.33-8.21 6.148-.209.484-.709.768-1.233.705-.993-.126-1.895-.078-2.85-.027-1.255.067-2.553.137-4.095-.189-1.045-.22-2.432-.463-3.89-.365-3.411.228-6.346 1.563-8.052 3.664-1.363 1.678-2.04 3.912-2.564 6.035zM249.573 354c-6.94 0-13.857-1.345-20.57-2.65-2.685-.522-5.46-1.062-8.18-1.503-.05-.008-5.217-.847-10.334-1.71-9.893-1.667-9.901-1.678-10.282-2.238a1.2 1.2 0 0 1-.18-.923c.638-2.71 1.357-5.757 3.313-8.165 2.12-2.61 5.665-4.262 9.728-4.533 1.748-.116 3.341.158 4.535.41 1.239.262 2.329.204 3.482.142.765-.041 1.55-.084 2.404-.036 2.111-4.233 5.794-6.755 9.994-6.793 1.622-.02 2.92.378 3.875 1.169 1.154.955 1.81 2.49 1.952 4.56a14.884 14.884 0 0 1-.35 4.342l8.956 2.074c1.449.336 3.251.753 4.651 1.926 1.791 1.5 2.678 4.053 2.374 6.828-.255 2.326-1.258 4.475-2.143 6.37-.187.4-.58.664-1.02.683-.735.032-1.47.047-2.205.047z"/><g transform="translate(52 149)"><mask id="b" fill="#fff"><use xlink:href="#a"/></mask><path fill="#5D7183" d="M67.326 316.94c-6.693 0-13.096-.784-18.787-2.358-16.52-4.568-29.894-15.865-38.677-32.669C2.061 266.987-1.355 248.539.49 231.297c3.018-28.192 17.83-53.005 32.156-77 4.07-6.82 8.28-13.873 12.058-20.766 7.774-14.191 6.462-36.51 5.504-52.807-.103-1.75-.202-3.443-.287-5.06l-.041-.788c-1.182-22.416-2.968-56.29 18.247-69.658 8.571-5.4 18.842-6.49 28.92-3.068 9.206 3.126 17.613 9.816 23.066 18.355 10.09 15.799 13.707 35.19 17.204 53.944 1.066 5.716 2.073 11.116 3.257 16.427 9.837 44.11 22.032 62.91 30.35 73.215 6.46 8.002 15.837 12.91 25.728 13.462 9.395.524 18.28-2.855 25.013-9.518 6.102-6.039 9.103-15.153 11.436-24.103 3.51-13.466 5.044-27.587 6.527-41.243.206-1.893.412-3.786.622-5.675 1.693-15.208 5.91-34.15 23.628-45.725a1.18 1.18 0 0 1 1.636.345 1.186 1.186 0 0 1-.344 1.64c-16.89 11.034-20.934 29.312-22.57 44.002-.21 1.888-.416 3.778-.621 5.67-1.493 13.74-3.036 27.95-6.59 41.585-2.42 9.277-5.554 18.75-12.063 25.19-7.214 7.14-16.736 10.759-26.805 10.198-10.557-.59-20.556-5.816-27.435-14.338-17.68-21.901-26.056-52.83-30.819-74.188-1.193-5.352-2.204-10.771-3.274-16.509-3.456-18.53-7.029-37.692-16.871-53.102-5.17-8.094-13.127-14.431-21.833-17.387-9.392-3.19-18.946-2.185-26.903 2.829C49.346 19.85 51.088 52.889 52.24 74.75l.041.788c.085 1.613.184 3.3.287 5.046.975 16.584 2.31 39.297-5.793 54.086-3.798 6.933-8.02 14.004-12.102 20.842C20.48 179.29 5.804 203.875 2.841 231.55c-3.424 31.987 11.649 71.158 46.327 80.747 11.51 3.183 26.07 3.022 39.946-.444 14.701-3.671 26.673-10.527 33.71-19.304a1.18 1.18 0 0 1 1.661-.181c.51.41.59 1.155.181 1.665-7.358 9.179-19.78 16.324-34.98 20.12-7.434 1.856-15.07 2.787-22.36 2.787" mask="url(#b)"/></g><path fill="#5D7183" d="M150.796 313c-.864 0-1.7-.402-2.241-1.077-.544-.68-.7-1.526-.415-2.264.284-.738.988-1.318 1.885-1.552.896-.233 1.837-.082 2.518.404.524.374.61 1.059.193 1.529-.418.47-1.18.548-1.705.173-.052-.037-.182-.055-.33-.016-.147.038-.247.116-.269.173-.021.056.004.172.094.284.089.112.203.17.27.17h.009c.666 0 1.208.482 1.213 1.08.004.601-.535 1.091-1.205 1.096h-.017zm-5 19c-.864 0-1.7-.402-2.241-1.077-.544-.68-.7-1.526-.415-2.264.284-.738.988-1.318 1.885-1.551.896-.234 1.837-.083 2.518.403.524.374.61 1.059.193 1.529-.418.47-1.18.548-1.705.173-.052-.037-.182-.054-.33-.016-.147.039-.247.116-.269.172-.021.057.004.173.094.285.089.112.203.17.27.17h.009c.666 0 1.208.482 1.213 1.08.004.601-.535 1.091-1.205 1.096h-.017z"/></g></svg>